<svg width="244" height="244" viewBox="0 0 244 244" fill="none" xmlns="http://www.w3.org/2000/svg">
<path d="M122.001 12C78.1538 12 40.303 37.6607 22.6309 74.7811C50.3202 54.891 84.2669 43.1697 120.964 43.1697C159.058 43.1697 194.195 55.7926 222.434 77.0893C205.258 38.7246 166.749 12 122.001 12Z" fill="#FFB700"/>
<path d="M22.6303 74.7812C15.8139 89.0902 12 105.094 12 122C12 127.807 12.4508 133.496 13.3164 139.059C36.6869 104.589 76.1787 81.9402 120.963 81.9402C166.82 81.9402 207.124 105.689 230.26 141.566C231.396 135.218 231.991 128.681 231.991 122C231.991 105.996 228.574 90.8033 222.425 77.0894C194.185 55.8016 159.039 43.1697 120.954 43.1697C84.2664 43.1697 50.3197 54.891 22.6303 74.7812Z" fill="#FFCE00"/>
<path d="M120.963 81.9402C76.1787 81.9402 36.6869 104.589 13.3164 139.059C14.7951 148.526 17.473 157.597 21.2058 166.099C28.1754 157.092 38.4271 150.753 50.1664 148.86C67.532 129.375 92.8139 117.095 120.963 117.095C152.043 117.095 179.624 132.053 196.917 155.153C202.057 150.122 209.089 147.012 216.852 147.012C221.018 147.012 224.967 147.913 228.529 149.509C229.205 146.894 229.782 144.234 230.269 141.548C207.133 105.689 166.821 81.9402 120.963 81.9402Z" fill="#FFE14F"/>
<path d="M98.9635 174.367C104.292 171.148 110.541 169.3 117.222 169.3C129.917 169.3 141.052 175.99 147.3 186.034C151.727 182.608 157.137 180.39 163.025 179.867C165.604 173.231 172.032 168.525 179.579 168.525C182.915 168.525 186.035 169.444 188.704 171.049C189.686 164.873 192.653 159.355 196.927 155.171C179.633 132.071 152.052 117.113 120.973 117.113C92.8143 117.113 67.5323 129.393 50.1758 148.878C52.5741 148.49 55.0356 148.283 57.5422 148.283C75.7914 148.274 91.561 158.931 98.9635 174.367Z" fill="#FF7E1D"/>
<path d="M216.853 147.021C209.089 147.021 202.057 150.131 196.917 155.162C192.643 159.346 189.677 164.864 188.694 171.04C186.025 169.444 182.906 168.516 179.57 168.516C172.023 168.516 165.594 173.222 163.016 179.858C163.908 179.777 164.81 179.732 165.73 179.732C180.363 179.732 192.562 190.146 195.33 203.977C201.561 198.405 207.142 192.13 211.975 185.286C219.503 174.611 225.175 162.529 228.529 149.527C224.967 147.922 221.018 147.021 216.853 147.021Z" fill="#EAE7E4"/>
<path d="M165.739 179.741C164.828 179.741 163.918 179.786 163.025 179.867C157.128 180.39 151.727 182.617 147.3 186.034C141.052 175.99 129.917 169.3 117.222 169.3C110.54 169.3 104.301 171.148 98.9634 174.367C91.561 158.931 75.7913 148.274 57.5331 148.274C55.0265 148.274 52.5651 148.481 50.1667 148.869C38.4274 150.762 28.1847 157.101 21.2061 166.108C23.8298 172.104 26.9765 177.83 30.5921 183.212C43.2692 202.102 61.6446 216.843 83.2569 224.985C95.3028 229.511 108.359 232 122 232C135.642 232 148.698 229.512 160.753 224.976C173.565 220.152 185.241 213.011 195.258 204.049C195.286 204.022 195.313 204.004 195.34 203.977C192.572 190.155 180.372 179.741 165.739 179.741Z" fill="#FAF6F4"/>
<path d="M120.963 151.033C117.708 151.033 114.823 149.076 113.633 146.047C113.362 145.352 113.696 144.568 114.39 144.289C115.084 144.018 115.869 144.352 116.148 145.046C116.933 147.039 118.826 148.328 120.963 148.328C123.1 148.328 124.993 147.039 125.778 145.046C126.048 144.352 126.833 144.009 127.536 144.289C128.23 144.559 128.573 145.352 128.293 146.047C127.094 149.076 124.218 151.033 120.963 151.033Z" fill="#FC491E"/>
<path d="M131.972 141.52C127.834 141.52 124.173 139.032 122.649 135.182C122.379 134.488 122.713 133.703 123.407 133.424C124.101 133.153 124.886 133.487 125.165 134.181C126.274 136.994 128.952 138.816 131.972 138.816C134.993 138.816 137.671 136.994 138.78 134.181C139.05 133.487 139.835 133.144 140.538 133.424C141.232 133.694 141.575 134.488 141.295 135.182C139.772 139.032 136.111 141.52 131.972 141.52Z" fill="#FC491E"/>
<path d="M109.954 141.52C105.815 141.52 102.155 139.032 100.631 135.182C100.36 134.488 100.694 133.703 101.388 133.424C102.083 133.153 102.867 133.487 103.146 134.181C104.255 136.994 106.933 138.816 109.954 138.816C112.974 138.816 115.652 136.994 116.761 134.181C117.032 133.487 117.816 133.144 118.519 133.424C119.214 133.694 119.556 134.488 119.277 135.182C117.753 139.032 114.092 141.52 109.954 141.52Z" fill="#FC491E"/>
<path d="M194.294 127.311C193.094 127.311 191.976 127.653 191.021 128.23C190.254 123.352 186.044 119.62 180.949 119.62C177.469 119.62 174.394 121.369 172.555 124.029C171.031 122.839 169.129 122.126 167.046 122.126C162.096 122.126 158.093 126.139 158.093 131.08C158.093 136.03 162.105 140.033 167.046 140.033H194.294C197.81 140.033 200.65 137.184 200.65 133.676C200.659 130.16 197.81 127.311 194.294 127.311Z" fill="#FAF6F4"/>
<path d="M75.782 53.5476C74.0869 53.5476 72.482 53.9172 71.0303 54.5664C68.4697 49.8328 63.4566 46.614 57.6861 46.614C51.6541 46.614 46.4426 50.1394 44.0082 55.2426C42.25 54.1787 40.1943 53.5566 37.9852 53.5566C33.7926 53.5566 30.1229 55.7746 28.0582 59.0926C26.3721 57.7853 24.2623 57.0008 21.9631 57.0008C16.4631 57.0008 12 61.464 12 66.964C12.009 72.4549 16.4721 76.918 21.9721 76.918H75.782C82.2377 76.918 87.4672 71.6885 87.4672 65.2328C87.4672 58.7771 82.2377 53.5476 75.782 53.5476Z" fill="#FAF6F4"/>
</svg>
